<svg id="visual" viewBox="0 0 900 600" width="900" height="600" xmlns="http://www.w3.org/2000/svg" xmlns:xlink="http://www.w3.org/1999/xlink" version="1.1"><g transform="translate(438.983305417016 299.189354036732)"><path d="M167 -276.4C210 -264.4 234.1 -206.7 243.9 -153C253.7 -99.3 249.4 -49.7 259.9 6.1C270.4 61.8 295.9 123.7 280.9 168.6C266 213.4 210.8 241.4 157.2 261C103.7 280.6 51.8 291.8 10.3 274C-31.3 256.1 -62.5 209.3 -112.7 187.8C-163 166.3 -232.2 170.1 -254.4 143.1C-276.6 116 -251.8 58 -246.2 3.3C-240.5 -51.5 -254.1 -103 -247.5 -157.1C-240.9 -211.3 -214.2 -268 -169.6 -279.1C-125 -290.2 -62.5 -255.6 -0.3 -255.2C62 -254.7 124 -288.4 167 -276.4" fill="#0066FF"></path></g></svg>